<svg width="81" height="14" viewBox="0 0 81 14" fill="none" xmlns="http://www.w3.org/2000/svg">
<g clip-path="url(#clip0_5_236)">
<path d="M46.5012 13.6686H45.8387V11.937H46.5012C46.759 11.937 46.9431 12.0107 47.0903 12.1581C47.2378 12.3054 47.3112 12.5265 47.3112 12.7844C47.3112 13.0423 47.2378 13.2633 47.0903 13.4107C46.98 13.5581 46.759 13.6686 46.5012 13.6686ZM46.17 12.2317V13.337H46.5012C46.6487 13.337 46.7959 13.3002 46.8697 13.1896C46.9431 13.0791 47.0169 12.9317 47.0169 12.7844C47.0169 12.637 46.98 12.4896 46.8697 12.3791C46.7959 12.2686 46.6487 12.2317 46.5012 12.2317H46.17Z" fill="white"/>
<path d="M48.379 13.6686V11.937H48.7103V13.6686H48.379Z" fill="white"/>
<path d="M50.5881 13.6685C50.3303 13.6685 50.1097 13.5948 49.9253 13.4106C49.7412 13.2264 49.6678 13.0422 49.6678 12.7843C49.6678 12.5264 49.7412 12.3053 49.9253 12.1211C50.1097 11.9369 50.3303 11.8632 50.5881 11.8632C50.7353 11.8632 50.846 11.9001 50.9931 11.9369C51.1038 11.9737 51.2141 12.0475 51.2878 12.158L51.0669 12.379C50.9197 12.2316 50.7722 12.158 50.5881 12.158C50.4041 12.158 50.2938 12.2316 50.1831 12.3422C50.0728 12.4527 49.9991 12.6001 49.9991 12.7475C49.9991 12.9316 50.036 13.0422 50.1462 13.1527C50.2569 13.2632 50.4041 13.3369 50.5512 13.3369C50.6619 13.3369 50.7353 13.3369 50.8091 13.3001C50.8828 13.2632 50.9562 13.2264 51.03 13.1527V12.8948H50.5147V12.6001H51.3247V13.3001C51.1403 13.558 50.8828 13.6685 50.5881 13.6685Z" fill="white"/>
<path d="M52.3922 13.6686V11.937H52.7238V13.6686H52.3922Z" fill="white"/>
<path d="M54.1597 13.6686V12.2317H53.644V11.937H54.9697V12.2317H54.4909V13.6686H54.1597Z" fill="white"/>
<path d="M57.1419 13.6686H56.8103L56.6631 13.2633H56.0372L55.89 13.6686H55.5588L56.2212 11.937H56.4791L57.1419 13.6686ZM56.5897 12.9686L56.3688 12.3791L56.1478 12.9686H56.5897Z" fill="white"/>
<path d="M59.2772 13.6686H58.0622V11.937H58.3938V13.3738H59.2772V13.6686Z" fill="white"/>
<path d="M62.2228 13.6685C61.965 13.6685 61.7441 13.5948 61.5969 13.4106C61.4128 13.2264 61.3391 13.0422 61.3391 12.7843C61.3391 12.5264 61.4128 12.3053 61.5969 12.1211C61.7809 11.9369 62.0019 11.8632 62.2228 11.8632C62.37 11.8632 62.5172 11.9001 62.6647 11.9737C62.8119 12.0475 62.8853 12.1211 62.9959 12.2316L62.775 12.4527C62.6278 12.2685 62.4803 12.1948 62.2597 12.1948C62.1122 12.1948 61.965 12.2685 61.8547 12.379C61.7441 12.4896 61.6703 12.6369 61.6703 12.8211C61.6703 13.0053 61.7072 13.1158 61.8178 13.2264C61.9281 13.3369 62.0753 13.3737 62.2228 13.3737C62.4438 13.3737 62.6278 13.3001 62.7381 13.1158L62.9591 13.3001C62.8853 13.4106 62.775 13.4843 62.6278 13.558C62.5172 13.6316 62.37 13.6685 62.2228 13.6685Z" fill="white"/>
<path d="M63.8059 12.7843C63.8059 12.5264 63.8797 12.3054 64.0637 12.158C64.2478 11.9738 64.4687 11.9001 64.6897 11.9001C64.9471 11.9001 65.1681 11.9738 65.3153 12.158C65.4997 12.3422 65.5731 12.5633 65.5731 12.7843C65.5731 13.0422 65.4997 13.2264 65.3153 13.4106C65.1312 13.5948 64.9103 13.6685 64.6897 13.6685C64.4319 13.6685 64.2109 13.5948 64.0637 13.4106C63.8797 13.2633 63.8059 13.0422 63.8059 12.7843ZM65.2787 12.7843C65.2787 12.6001 65.205 12.4896 65.0947 12.3791C64.984 12.2685 64.8369 12.1948 64.6897 12.1948C64.5421 12.1948 64.395 12.2685 64.2847 12.3791C64.174 12.4896 64.1371 12.637 64.1371 12.7843C64.1371 12.9685 64.174 13.0791 64.2847 13.1896C64.395 13.3001 64.5421 13.337 64.6897 13.337C64.8369 13.337 64.984 13.3001 65.0947 13.1896C65.2419 13.0791 65.2787 12.9685 65.2787 12.7843Z" fill="white"/>
<path d="M66.9353 13.6686H66.6041V11.937H66.7881L67.4878 12.9317L68.1872 11.937H68.4081V13.6686H68.0769V12.637L67.5612 13.4107H67.451L66.9353 12.637V13.6686Z" fill="white"/>
<path d="M69.844 13.6686H69.5128V11.937H69.6969L70.3962 12.9317L71.0959 11.937H71.3169V13.6686H70.9853V12.637L70.47 13.4107H70.3597L69.844 12.637V13.6686Z" fill="white"/>
<path d="M73.5628 13.6686H72.4212V11.937H73.5628V12.2317H72.7159V12.637H73.489V12.9317H72.7159V13.3738H73.5628V13.6686Z" fill="white"/>
<path d="M75.8822 13.6686H75.5141L75.1091 13.0054H74.8881V13.6686H74.5569V11.937H75.2197C75.4038 11.937 75.5509 11.9738 75.6612 12.0844C75.7719 12.1949 75.8088 12.3054 75.8088 12.4528C75.8088 12.5633 75.7719 12.6738 75.6981 12.7475C75.6247 12.8212 75.5509 12.8949 75.4403 12.9317L75.8822 13.6686ZM75.2197 12.2317H74.8881V12.7475H75.1828C75.2931 12.7475 75.33 12.7107 75.4038 12.6738C75.4403 12.637 75.4772 12.5633 75.4772 12.4896C75.4772 12.4159 75.4403 12.3423 75.4038 12.3054C75.3669 12.2317 75.33 12.2317 75.2197 12.2317Z" fill="white"/>
<path d="M77.6497 13.6685C77.3919 13.6685 77.1709 13.5948 77.0238 13.4106C76.8397 13.2264 76.7659 13.0422 76.7659 12.7843C76.7659 12.5264 76.8397 12.3053 77.0238 12.1211C77.2078 11.9369 77.4288 11.8632 77.6497 11.8632C77.7969 11.8632 77.944 11.9001 78.0912 11.9737C78.2388 12.0475 78.3122 12.1211 78.4228 12.2316L78.2019 12.4527C78.0547 12.2685 77.9072 12.1948 77.6862 12.1948C77.539 12.1948 77.3919 12.2685 77.2812 12.379C77.1709 12.4896 77.0972 12.6369 77.0972 12.8211C77.0972 13.0053 77.134 13.1158 77.2447 13.2264C77.355 13.3369 77.5022 13.3737 77.6497 13.3737C77.8703 13.3737 78.0547 13.3001 78.165 13.1158L78.3859 13.3001C78.3122 13.4106 78.2019 13.4843 78.0547 13.558C77.944 13.6316 77.7969 13.6685 77.6497 13.6685Z" fill="white"/>
<path d="M80.5212 13.6686H79.38V11.937H80.5212V12.2317H79.6747V12.637H80.4478V12.9317H79.6747V13.3738H80.5212V13.6686Z" fill="white"/>
<path d="M32.9893 3.90539L33.0261 3.64747C33.0997 3.24221 33.4311 2.91063 33.8729 2.91063H34.3515V9.61591C34.3515 9.76325 34.1674 9.83696 34.057 9.76325L32.9893 8.87906C32.3634 9.61591 31.5902 9.9843 30.6329 9.9843C29.6388 9.9843 28.792 9.61591 28.1661 8.91591C27.5034 8.21591 27.2088 7.33168 27.2088 6.30011C27.2088 5.26853 27.5402 4.42116 28.1661 3.72116C28.8288 3.058 29.6388 2.68958 30.6329 2.68958C31.5902 2.8001 32.3634 3.16852 32.9893 3.90539ZM30.817 8.73168C31.4429 8.73168 31.9952 8.51063 32.437 8.06853C32.842 7.62644 33.0629 7.07378 33.0629 6.41063C33.0629 5.74749 32.842 5.23168 32.437 4.75273C31.9952 4.31063 31.4797 4.08958 30.817 4.08958C30.1543 4.08958 29.6388 4.31063 29.197 4.75273C28.792 5.19483 28.5711 5.74749 28.5711 6.41063C28.5711 7.07378 28.792 7.62644 29.197 8.06853C29.6388 8.51063 30.1543 8.73168 30.817 8.73168Z" fill="white"/>
<path d="M50.036 3.9054L50.0729 3.68435C50.1463 3.27908 50.4779 2.94751 50.9197 2.94751H51.3981V9.65277C51.3981 9.80015 51.2141 9.87382 51.1038 9.80015L50.036 8.91592C49.41 9.65277 48.6369 10.0212 47.6797 10.0212C46.6853 10.0212 45.8388 9.65277 45.2129 8.95277C44.55 8.25277 44.2553 7.36858 44.2553 6.33697C44.2553 5.3054 44.5869 4.45806 45.2129 3.75804C45.8753 3.09488 46.6853 2.72646 47.6797 2.72646C48.6369 2.80014 49.41 3.16856 50.036 3.9054ZM47.8638 8.73173C48.4897 8.73173 49.0419 8.51068 49.4838 8.06858C49.8888 7.62644 50.1097 7.07382 50.1097 6.41068C50.1097 5.74749 49.8888 5.23173 49.4838 4.75277C49.0419 4.31068 48.5263 4.08963 47.8638 4.08963C47.201 4.08963 46.6853 4.31068 46.2438 4.75277C45.8388 5.19487 45.6179 5.74749 45.6179 6.41068C45.6179 7.07382 45.8388 7.62644 46.2438 8.06858C46.6853 8.51068 47.201 8.73173 47.8638 8.73173Z" fill="white"/>
<path d="M59.9769 6.41053C59.9769 5.41581 60.3081 4.56843 61.0078 3.83158C61.7071 3.13159 62.5909 2.76317 63.6219 2.76317C64.6897 2.76317 65.5362 3.13159 66.2359 3.83158C66.9353 4.53158 67.2669 5.37896 67.2669 6.41053C67.2669 7.44211 66.9353 8.28948 66.2359 8.98948C65.5731 9.68948 64.6897 10.0579 63.6219 10.0579C62.554 10.0579 61.6703 9.68948 61.0078 8.98948C60.345 8.28948 59.9769 7.40529 59.9769 6.41053ZM65.8678 6.41053C65.8678 5.78424 65.6469 5.23158 65.205 4.78948C64.8 4.31053 64.2478 4.08948 63.6219 4.08948C62.9959 4.08948 62.4803 4.31053 62.0388 4.78948C61.5969 5.23158 61.4128 5.78424 61.4128 6.41053C61.4128 7.03686 61.6338 7.58948 62.0388 8.06843C62.4803 8.51053 62.9959 8.73158 63.6219 8.73158C64.2478 8.73158 64.7631 8.51053 65.205 8.06843C65.6469 7.58948 65.8678 7.03686 65.8678 6.41053Z" fill="white"/>
<path d="M79.1222 3.90532V1.14218C79.1222 0.66323 79.5272 0.257965 80.006 0.257965H80.5581V9.39479C80.5581 9.6527 80.2638 9.80008 80.0797 9.61584L79.1591 8.87903C78.57 9.61584 77.7969 10.0211 76.8397 10.0211C75.8453 10.0211 74.9988 9.68955 74.3728 8.98955C73.71 8.28955 73.3788 7.40532 73.3788 6.4106C73.3788 5.41584 73.71 4.53165 74.3728 3.83165C75.0353 3.13165 75.8453 2.76323 76.8397 2.76323C77.76 2.80007 78.5331 3.16849 79.1222 3.90532ZM79.2328 6.4106C79.2328 5.74745 79.0119 5.23165 78.6069 4.7527C78.2019 4.3106 77.6497 4.08955 76.9869 4.08955C76.3241 4.08955 75.8088 4.3106 75.3669 4.7527C74.9619 5.1948 74.741 5.74745 74.741 6.4106C74.741 7.07375 74.9619 7.62637 75.3669 8.0685C75.7719 8.5106 76.3241 8.73165 76.9869 8.73165C77.6497 8.73165 78.165 8.5106 78.6069 8.0685C79.0488 7.62637 79.2328 7.07375 79.2328 6.4106Z" fill="white"/>
<path d="M41.6047 3.68424L41.5678 3.94213C40.9419 3.2053 40.1688 2.80003 39.2112 2.80003C38.2172 2.80003 37.3705 3.13161 36.7446 3.83161C36.0819 4.49476 35.7874 5.37899 35.7874 6.41056C35.7874 7.44213 36.1187 8.32633 36.7446 9.02633C37.4073 9.72637 38.2172 10.0948 39.2112 10.0948C40.1688 10.0948 40.9419 9.72637 41.5678 8.98951V9.91056C41.5678 10.9053 40.7578 11.7158 39.7638 11.7158H36.8918C36.7078 11.7158 36.6342 11.9369 36.7815 12.0474L37.8123 12.8948C37.9227 13.0053 38.1069 13.0421 38.2541 13.0421H39.8003C41.5309 13.0421 42.93 11.6421 42.93 9.91056V9.87371V2.9474H42.4512C42.0462 2.9474 41.6781 3.27898 41.6047 3.68424ZM41.0153 8.06846C40.5738 8.51056 40.0581 8.73161 39.3953 8.73161C38.7328 8.73161 38.2172 8.51056 37.7755 8.06846C37.3705 7.62637 37.1495 7.07371 37.1495 6.41056C37.1495 5.74742 37.3705 5.19476 37.7755 4.75266C38.1803 4.31056 38.7328 4.08951 39.3953 4.08951C40.0212 4.08951 40.5738 4.31056 41.0153 4.75266C41.4203 5.19476 41.6412 5.74742 41.6412 6.41056C41.6412 7.07371 41.4203 7.62637 41.0153 8.06846Z" fill="white"/>
<path d="M72.8262 2.80003H70.9853C69.6969 2.80003 68.666 3.83161 68.666 5.12109V10.0211H70.1388L70.1019 5.41581C70.1019 4.75266 70.6172 4.23689 71.2431 4.23689L72.3478 4.20004L73.0472 3.27898C73.2312 3.05792 73.0841 2.80003 72.8262 2.80003Z" fill="white"/>
<path d="M21.0601 6.41057L16.7523 3.16846C16.5682 3.02108 16.2737 3.16845 16.2737 3.38951V8.87899C16.2737 9.06319 16.3842 9.24742 16.5682 9.35794L17.4151 9.8369C17.5623 9.91057 17.7464 9.80004 17.7464 9.65266V5.71057L20.4342 7.7369L21.0601 8.21585L21.686 7.7369L24.3737 5.71057V9.68952C24.3737 9.8369 24.5578 9.94742 24.7051 9.87371L25.5519 9.3948C25.736 9.28427 25.8464 9.10004 25.8464 8.91585V3.38951C25.8464 3.13161 25.5519 3.02108 25.3678 3.16846L21.0601 6.41057Z" fill="white"/>
<path d="M59.8297 2.94737H58.4303H58.1359H54.0121C53.865 2.94737 53.7547 3.02106 53.6809 3.13158L53.0181 4.0158C52.9447 4.12633 53.0181 4.31052 53.1653 4.31052H57.0681L52.7238 10.0579H54.0121H54.4172H58.5409C58.6881 10.0579 58.7988 9.98423 58.8721 9.87371L59.535 8.98947C59.6088 8.87895 59.535 8.69476 59.3878 8.69476H55.4481L59.8297 2.94737Z" fill="white"/>
<path d="M8.79957 10.2053V11.5316L6.33276 13.4106V11.3842L8.24733 9.94742C8.39457 9.8369 8.61552 9.87371 8.72595 10.0211C8.76276 10.0579 8.79957 10.1316 8.79957 10.2053Z" fill="white"/>
<path d="M6.33285 13.4104L3.82922 11.5315V10.2052C3.82922 10.021 3.97647 9.8736 4.19741 9.8736C4.27103 9.8736 4.34466 9.91045 4.38147 9.9473L6.29603 11.3841L6.33285 13.4104Z" fill="white"/>
<path d="M10.4564 0.921032V2.13682C10.4564 2.17366 10.4196 2.21051 10.4196 2.24735L6.33276 5.30523V3.31577L9.83052 0.66314C9.97776 0.51577 10.1987 0.51577 10.346 0.66314C10.4196 0.736822 10.4564 0.810507 10.4564 0.921032Z" fill="white"/>
<path d="M6.07497 7.25791C6.07497 7.1842 6.03816 7.11053 5.9645 7.07368L1.58316 3.7579C1.28861 3.57368 0.846793 3.64736 0.662703 3.97896C0.589065 4.08948 0.552246 4.20001 0.552246 4.31053V9.10001L2.20906 10.3158V6.66844C2.20906 6.55791 2.31952 6.4842 2.42997 6.4842C2.46679 6.4842 2.50361 6.4842 2.54043 6.52106L5.70678 8.91578C5.81726 8.98948 5.9645 8.98948 6.03816 8.87896C6.07497 8.84211 6.07497 8.80525 6.07497 8.73158V7.25791Z" fill="white"/>
<path d="M11.0087 3.75796L6.62738 7.07373C6.55372 7.11059 6.51691 7.18426 6.51691 7.25797V8.69478C6.51691 8.80531 6.62738 8.91583 6.73781 8.91583C6.77462 8.91583 6.84828 8.91583 6.8851 8.87901L10.0515 6.48426C10.1251 6.41059 10.2724 6.44744 10.346 6.52111C10.3828 6.55797 10.3828 6.59478 10.3828 6.63164V10.3158L12.0028 9.10006V4.31059C12.0028 3.94216 11.6715 3.64741 11.3033 3.68427C11.2296 3.68427 11.1192 3.72111 11.0087 3.75796Z" fill="white"/>
<path d="M2.7982 0.626244C2.65093 0.51572 2.3932 0.552563 2.28274 0.69993C2.24593 0.773615 2.20911 0.847297 2.20911 0.920982V3.49993C2.20911 3.61046 2.24593 3.68414 2.31956 3.75782L3.46093 4.64201C3.57138 4.71572 3.68183 4.67887 3.75547 4.56834C3.75547 4.53149 3.79229 4.49467 3.79229 4.45782V3.72097C3.79229 3.6473 3.86592 3.57362 3.93958 3.57362C3.97639 3.57362 3.97639 3.57362 4.0132 3.61046L6.29592 5.3052V3.31572L2.7982 0.626244Z" fill="white"/>
</g>
<defs>
<clipPath id="clip0_5_236">
<rect width="81" height="14" fill="white"/>
</clipPath>
</defs>
</svg>
